<svg width="191" height="56" viewBox="0 0 191 56" fill="none" xmlns="http://www.w3.org/2000/svg">
<g clip-path="url(#clip0_72_20)">
<path d="M53.7402 31.05C53.6302 29.12 53.7402 27.17 53.7402 25.23C53.7402 23.83 53.3902 23.38 52.0302 23.07C50.6702 22.76 49.4002 22.28 49.0302 20.54C48.7531 19.5618 48.3497 18.6239 47.8302 17.75C47.4699 17.1753 47.3054 16.4994 47.3612 15.8234C47.4171 15.1474 47.6904 14.5077 48.1402 14C48.2402 13.83 48.3202 13.66 48.4002 13.49C48.677 13.1033 48.7988 12.6268 48.7414 12.1547C48.684 11.6825 48.4516 11.2491 48.0902 10.94L45.0902 7.82C42.9402 5.52 42.6802 5.45 40.0902 7.07C39.8454 7.24549 39.5564 7.34882 39.2559 7.36826C38.9554 7.38771 38.6555 7.32248 38.3902 7.18C37.1267 6.48977 35.8283 5.8656 34.5002 5.31C33.9758 5.1307 33.5114 4.80967 33.1583 4.3825C32.8053 3.95534 32.5775 3.43874 32.5002 2.89C31.8602 0.2 31.5202 0 28.8602 0H23.8102C22.3502 0 21.9002 0.4 21.5002 1.88C21.1002 3.36 20.7702 4.79 19.1002 5.3C17.6368 5.86248 16.2163 6.53092 14.8502 7.3C14.6412 7.3925 14.4121 7.43003 14.1846 7.40903C13.957 7.38802 13.7386 7.30918 13.5502 7.18C12.7502 6.71 12.1002 6 11.0002 6C10.4264 6.08186 9.90661 6.38295 9.55016 6.84C8.33016 8 7.11016 9.25 5.92016 10.5C4.73016 11.75 4.57016 12.38 5.67016 14.06C6.38016 15.13 6.81016 16.17 5.96016 17.41C5.66054 17.9606 5.44802 18.5543 5.33016 19.17C4.74016 21.27 3.82016 22.95 1.39016 23.17C0.53016 23.27 0.0401596 24.07 0.0601596 25.11V30C0.0601596 32.78 0.0601594 32.81 2.70016 33.68C3.16353 33.789 3.591 34.0156 3.94132 34.3379C4.29164 34.6602 4.55299 35.0673 4.70016 35.52C5.11016 36.82 5.70016 38.05 6.23016 39.33C6.36292 39.6603 6.42272 40.0154 6.40546 40.3709C6.3882 40.7265 6.29429 41.0741 6.13016 41.39C5.83016 41.95 5.60016 42.45 5.28016 42.95C5.00214 43.3095 4.87486 43.763 4.92525 44.2147C4.97564 44.6663 5.19975 45.0806 5.55016 45.37C6.73016 46.59 7.93016 47.78 9.08016 49.02C10.6502 50.71 11.1602 50.84 13.0802 49.6C13.4436 49.3227 13.8821 49.1611 14.3386 49.1361C14.7951 49.1111 15.2486 49.224 15.6402 49.46C16.4705 49.9344 17.3404 50.3359 18.2402 50.66C19.1098 50.8325 19.9013 51.279 20.4987 51.934C21.0962 52.5891 21.4682 53.4182 21.5602 54.3C21.5815 54.5411 21.6502 54.7756 21.7624 54.9901C21.8745 55.2046 22.0279 55.3948 22.2137 55.55C22.3994 55.7051 22.614 55.8221 22.8451 55.8941C23.0761 55.9662 23.3191 55.992 23.5602 55.97H29.5602C31.2802 55.97 31.6102 55.64 32.1002 53.9C32.4102 52.84 32.6302 51.69 33.8902 51.25C35.1175 50.8485 36.3085 50.3434 37.4502 49.74C38.0263 49.3688 38.7049 49.1893 39.3892 49.227C40.0735 49.2647 40.7283 49.5178 41.2602 49.95C42.3802 50.72 43.1302 50.57 44.0902 49.58C45.3202 48.3 46.5302 47.02 47.7702 45.75C49.0102 44.48 49.0102 44.14 48.1702 42.75C47.1702 41.22 46.9002 39.75 48.0602 38.2C48.3181 37.7217 48.5195 37.2149 48.6602 36.69C49.2802 35.03 50.0002 33.59 52.0402 33.37C53.2302 33.3 53.8202 32.43 53.7402 31.05ZM26.6802 47.64C21.6582 47.5115 16.8915 45.3995 13.4228 41.7658C9.95396 38.1321 8.0654 33.2725 8.17016 28.25C8.0955 25.7804 8.50812 23.3202 9.38444 21.0101C10.2608 18.7 11.5836 16.5851 13.2774 14.7864C14.9713 12.9876 17.0029 11.5402 19.2562 10.5267C21.5096 9.51331 23.9405 8.95374 26.4102 8.88H26.9002C37.3402 8.88 45.5702 17.26 45.5902 28.61C45.6002 38.82 37.2802 47.84 26.6802 47.64Z" fill="#E83926"/>
<path d="M119.69 18.24C118.639 18.208 117.592 18.3834 116.609 18.7562C115.626 19.1289 114.727 19.6917 113.961 20.4124C113.196 21.1331 112.58 21.9975 112.15 22.9562C111.719 23.915 111.481 24.9493 111.45 26C111.435 26.2865 111.435 26.5736 111.45 26.86C111.55 30.96 113.76 35.68 120.59 35.27C124.66 35.03 127.89 31.41 127.81 26.83C127.73 21.47 124.57 18.14 119.69 18.24ZM124.33 26.79C124.33 29.84 123.12 31.67 120.67 32.21C120.115 32.3599 119.537 32.3991 118.968 32.3254C118.398 32.2518 117.849 32.0666 117.351 31.7806C116.854 31.4946 116.417 31.1133 116.067 30.6585C115.716 30.2037 115.459 29.6843 115.31 29.13C114.761 27.6011 114.761 25.9289 115.31 24.4C115.626 23.4007 116.277 22.5409 117.153 21.9654C118.029 21.3898 119.077 21.1337 120.12 21.24C121.244 21.3646 122.285 21.8901 123.053 22.7204C123.821 23.5506 124.263 24.6298 124.3 25.76C124.338 26.102 124.348 26.4465 124.33 26.79Z" fill="#FCFCFC"/>
<path d="M68.6399 19C65.9899 18.48 63.2999 18.85 60.6399 18.73C59.9499 18.73 60.1899 19.23 60.1799 19.55V34.23C60.1799 34.73 60.1799 35.02 60.8299 35.01C62.8299 35.01 64.8299 35.07 66.8299 35.01C71.2499 34.75 73.6599 32.6 74.3399 28.25C74.8799 24.53 73.1599 19.92 68.6399 19ZM70.6399 29.11C70.0199 31.11 68.3699 31.84 66.4499 31.92C65.5299 31.92 64.3399 32.31 63.7799 31.85C63.2199 31.39 63.6299 30.07 63.5899 29.14C63.5499 28.21 63.5899 27.55 63.5899 26.76V22.4C63.5899 21.99 63.5899 21.61 64.1499 21.66C65.3307 21.6099 66.5135 21.6803 67.6799 21.87C68.4408 22.0307 69.1368 22.4135 69.6799 22.97C71.3099 24.78 71.2999 26.97 70.6199 29.15L70.6399 29.11Z" fill="#FCFCFC"/>
<path d="M141.76 27.6403C141.7 26.6105 141.338 25.6213 140.719 24.7961C140.1 23.9709 139.252 23.3463 138.28 23.0003C137.383 22.6102 136.382 22.5222 135.43 22.7494C134.478 22.9767 133.625 23.5068 133 24.2603C133.25 23.1903 132.87 22.9703 132.17 23.0603C131.712 23.1203 131.248 23.1203 130.79 23.0603C130.03 22.9603 129.86 23.2603 129.86 24.0603V37.3703C129.86 39.8403 129.86 39.8203 132.25 39.7903C132.9 39.7903 133.09 39.6103 133.07 38.9403C133.02 37.2703 133.07 35.5903 133.07 33.8103C133.69 34.4355 134.462 34.8882 135.31 35.1238C136.158 35.3594 137.053 35.3696 137.907 35.1535C138.76 34.9374 139.542 34.5024 140.176 33.8916C140.81 33.2807 141.273 32.5151 141.52 31.6703C141.905 30.3625 141.987 28.9845 141.76 27.6403ZM138.58 29.9303C138.539 30.6686 138.215 31.3625 137.674 31.8674C137.134 32.3723 136.42 32.6492 135.68 32.6403C134.14 32.5603 133.07 31.2003 133.03 29.2703V28.7903C133.03 26.3203 134.2 25.0603 136.24 25.2303C136.353 25.2203 136.467 25.2203 136.58 25.2303C138 25.6303 138.89 27.6503 138.58 29.9303Z" fill="#FCFCFC"/>
<path d="M179.14 30.9C179.1 30.7053 179.1 30.5046 179.14 30.31C179.29 29.46 178.95 29.15 178.14 29.31C177.51 29.42 177.29 29.21 177.33 28.49C177.39 27.03 177.33 25.57 177.33 24.1V19.71C177.33 19.01 177.23 18.71 176.48 18.77C175.715 18.84 174.945 18.84 174.18 18.77C173.49 18.69 173.18 19.01 172.85 19.57C171.203 22.4433 169.537 25.2966 167.85 28.13C167.292 29.0283 167.017 30.0734 167.06 31.13C167.06 31.93 167.21 32.23 168.06 32.19C169.55 32.11 171.06 32.19 172.53 32.19C174 32.19 174.08 32.19 173.98 33.74C173.91 34.83 174.23 35.12 175.27 35.08C177.33 34.99 177.35 35.08 177.34 32.93C177.34 32.42 177.34 32.06 177.97 32.19C179 32.35 179.35 31.91 179.14 30.9ZM173.31 29.32C172.31 29.25 171.31 29.32 170.17 29.32L173.94 22.71H174V28.53C174 29.07 174 29.36 173.31 29.32Z" fill="#FCFCFC"/>
<path d="M159.36 32.1H165.1C165.7 32.1 165.96 32.19 165.96 32.91C165.96 35.01 165.96 35.01 163.96 35.01H155.57C154.83 35.01 154.73 34.78 154.68 34.09C154.607 33.5539 154.679 33.0078 154.89 32.5096C155.102 32.0114 155.444 31.5796 155.88 31.26C157.884 29.6554 159.757 27.8931 161.48 25.99C161.82 25.6153 162.094 25.1859 162.29 24.72C162.46 24.4433 162.57 24.1341 162.613 23.8123C162.655 23.4905 162.63 23.1633 162.539 22.8518C162.447 22.5404 162.291 22.2517 162.081 22.0043C161.87 21.757 161.611 21.5565 161.318 21.4158C161.026 21.2752 160.707 21.1975 160.382 21.1878C160.058 21.1781 159.735 21.2366 159.434 21.3595C159.134 21.4824 158.863 21.667 158.638 21.9014C158.413 22.1357 158.24 22.4146 158.13 22.72C158.041 22.89 157.977 23.0718 157.94 23.26C157.84 23.8 157.68 23.89 157.24 23.86C156.8 23.83 156.39 23.86 155.97 23.86C154.47 23.86 154.42 23.74 154.84 22.19C155.67 19.14 158.84 18.12 161.13 18.51C163.81 18.96 165.48 20.51 165.73 22.58C165.801 23.5877 165.643 24.5983 165.269 25.5367C164.895 26.475 164.315 27.317 163.57 28C162.285 29.483 160.877 30.8545 159.36 32.1Z" fill="#FCFCFC"/>
<path d="M86.5897 34.3401C86.3682 31.7765 86.2915 29.2024 86.3597 26.6301C86.3524 25.8213 86.0906 25.0353 85.6113 24.3837C85.132 23.7321 84.4597 23.248 83.6897 23.0001C82.441 22.6112 81.117 22.5288 79.8297 22.7601C79.008 22.7942 78.2202 23.0975 77.5877 23.6233C76.9553 24.1492 76.5133 24.8684 76.3297 25.6701C76.2597 25.9701 76.1197 26.3101 76.4497 26.5301C76.9697 26.8801 79.0897 26.3801 79.5197 25.8601C79.7807 25.5492 80.122 25.3159 80.5063 25.1854C80.8907 25.055 81.3034 25.0324 81.6997 25.1201C82.0307 25.1477 82.3459 25.2739 82.6044 25.4825C82.8629 25.6911 83.0528 25.9724 83.1497 26.2901C83.3697 27.0001 83.4597 27.5301 82.3697 27.4901C80.6466 27.3493 78.9227 27.7515 77.4397 28.6401C76.8283 29.0042 76.3444 29.5485 76.0544 30.1983C75.7644 30.8482 75.6824 31.5718 75.8197 32.2701C75.8941 32.9216 76.1687 33.5341 76.6057 34.023C77.0427 34.5119 77.6206 34.8533 78.2597 35.0001C79.1352 35.2885 80.0699 35.348 80.9749 35.173C81.8799 34.9979 82.725 34.5942 83.4297 34.0001C83.4297 34.8901 83.9297 35.0001 84.6297 35.0001C85.0851 34.9508 85.5444 34.9508 85.9997 35.0001C86.5197 35.0501 86.6697 34.8601 86.5897 34.3401ZM83.2697 31.2101C82.979 31.8611 82.4509 32.3767 81.7931 32.6518C81.1353 32.9268 80.3973 32.9405 79.7297 32.6901C79.4773 32.5842 79.2643 32.4018 79.1208 32.1687C78.9773 31.9355 78.9105 31.6632 78.9297 31.3901C78.9411 31.0758 79.0504 30.773 79.2422 30.5238C79.434 30.2746 79.6988 30.0915 79.9997 30.0001C80.6714 29.7512 81.3752 29.5997 82.0897 29.5501C83.3497 29.5001 83.6597 30.0001 83.2697 31.2101Z" fill="#FCFCFC"/>
<path d="M99.0002 23.1501C99.0333 23.1445 99.0671 23.1445 99.1002 23.1501C100.17 23.1501 101.46 22.7901 102.24 23.2901C103.02 23.7901 103.03 25.1301 103.36 26.1201C103.9 27.7601 104.36 29.4201 105 31.2701C105.8 28.7701 106.59 26.4701 107.25 24.1401C107.48 23.3501 107.77 23.0301 108.58 23.1401C109.343 23.1951 110.108 23.1951 110.87 23.1401C108.98 27.9901 107.55 32.8901 105.51 37.5501C105.142 38.4282 104.479 39.1503 103.636 39.5921C102.793 40.0338 101.822 40.1675 100.89 39.9701C100.5 39.9001 100.37 39.7801 100.4 39.3801C100.44 38.9845 100.44 38.5858 100.4 38.1901C100.3 37.4401 100.53 37.1901 101.3 37.1901C102.95 37.1901 103.79 35.8201 103.18 34.1901C101.787 30.5301 100.394 26.8768 99.0002 23.2301C97.0002 17.7601 99.0002 23.1901 99.0002 23.1501Z" fill="#FCFCFC"/>
<path d="M148.21 35.2301C146.06 35.2301 144.09 34.8401 143.21 32.4501C142.75 31.2701 142.84 31.1401 144.08 31.1701C145.03 31.1701 145.97 31.0201 146.62 32.1701C147.03 32.8901 148.76 32.9601 149.62 32.5001C149.99 32.3101 150.37 32.0901 150.38 31.5601C150.386 31.3303 150.313 31.1054 150.173 30.9232C150.033 30.7411 149.834 30.6128 149.61 30.5601C148.52 30.23 147.407 29.9793 146.28 29.8101C145.357 29.6534 144.533 29.137 143.989 28.3742C143.446 27.6113 143.227 26.6641 143.38 25.7401C143.473 25.2187 143.685 24.7259 144 24.3001C144.435 23.6619 145.084 23.2007 145.83 23.0001C147.409 22.5122 149.103 22.5473 150.66 23.1001C151.175 23.2826 151.636 23.5921 152 24.0001C152.346 24.2746 152.605 24.6438 152.746 25.0628C152.886 25.4817 152.901 25.9324 152.79 26.3601C152.6 26.8301 150.16 26.2901 149.79 25.8001C149.52 25.4679 149.157 25.2233 148.748 25.0969C148.338 24.9706 147.901 24.9682 147.49 25.0901C146.95 25.2201 146.39 25.4701 146.39 26.2401C146.379 26.5179 146.478 26.789 146.665 26.9947C146.852 27.2005 147.113 27.3245 147.39 27.3401C148.22 27.5901 149.1 27.7101 149.95 27.8901C152.44 28.4201 153.5 29.6501 153.33 31.8001C153.16 33.9501 151.51 35.1901 149.23 35.2601L148.21 35.2301Z" fill="#FCFCFC"/>
<path d="M181.23 34.9999L187.23 21.6699H180.42C179.7 21.6699 179.42 21.5299 179.42 20.6699C179.47 18.7199 179.42 18.6699 181.34 18.6699H190.07C190.82 18.6699 190.92 18.8999 190.94 19.5999C190.94 20.4612 190.749 21.3117 190.38 22.0899C188.63 26.0899 186.87 29.9899 185.15 33.9599C184.85 34.6599 184.51 35.0199 183.72 34.9599C182.89 34.9283 182.059 34.9416 181.23 34.9999Z" fill="#FCFCFC"/>
<path d="M91.9997 29.0004V34.1004C91.9997 34.8604 91.7897 35.0104 91.0997 35.0104C88.6797 35.0104 88.6797 35.0104 88.6797 32.4904V23.9304C88.6797 23.3004 88.7797 23.0604 89.4697 23.0504C91.9997 23.0004 91.9997 23.0004 91.9997 25.6604V29.0004Z" fill="#FBFBFB"/>
<path d="M90.3298 21.6704C89.8479 21.6651 89.3876 21.47 89.0487 21.1273C88.7098 20.7847 88.5198 20.3223 88.5198 19.8404C88.5158 19.6132 88.5566 19.3874 88.6399 19.176C88.7232 18.9646 88.8473 18.7716 89.0052 18.6082C89.1631 18.4448 89.3516 18.314 89.56 18.2235C89.7684 18.1329 89.9926 18.0843 90.2198 18.0804H90.3898C90.5994 18.0568 90.8115 18.0748 91.0141 18.1335C91.2166 18.1922 91.4056 18.2903 91.5701 18.4223C91.7346 18.5543 91.8714 18.7174 91.9726 18.9025C92.0738 19.0875 92.1374 19.2907 92.1598 19.5004C92.1798 19.6262 92.1798 19.7545 92.1598 19.8804C92.1679 20.3411 91.9939 20.7865 91.6756 21.1197C91.3573 21.453 90.9204 21.6473 90.4598 21.6604L90.3298 21.6704Z" fill="#FBFBFB"/>
<path d="M97.8898 34.0999C97.8898 34.9599 97.6898 35.3699 96.7998 35.2399C95.9098 35.1099 95.0498 35.4799 94.2198 35.0399H94.1598C93.8598 34.7499 93.9798 34.3699 93.9798 34.0399V19.1399C93.9798 18.1399 94.2698 17.8599 95.2098 17.8799C97.8998 17.8799 97.8998 17.8799 97.8998 20.6899C97.8698 25.1399 97.8498 29.6199 97.8898 34.0999Z" fill="#FCFCFC"/>
<path d="M35.1302 38.2997C34.7793 38.5531 34.3449 38.6632 33.9157 38.6075C33.4864 38.5517 33.0946 38.3343 32.8201 37.9997C30.6001 36.0497 28.3501 34.1597 26.1301 32.2197C25.2512 32.1637 24.4266 31.7745 23.8246 31.1316C23.2226 30.4887 22.8884 29.6404 22.8901 28.7597C22.8865 28.575 22.9032 28.3906 22.9402 28.2097C22.9353 28.1866 22.9353 28.1627 22.9402 28.1397C23.0503 27.4938 23.3496 26.8952 23.8001 26.4197C24.3801 24.5297 24.0702 22.4197 24.4202 20.5097C24.6302 19.3097 24.5802 18.0597 24.6902 16.8397C24.8002 15.6197 25.5201 14.9297 26.3101 15.0697C27.3101 15.2497 27.6501 15.9397 27.7101 16.9397C27.9101 19.9397 28.1702 22.9397 28.3602 25.9397C28.8108 26.2568 29.1786 26.6777 29.4327 27.1667C29.6868 27.6557 29.8197 28.1986 29.8201 28.7497C29.8236 29.0888 29.773 29.4264 29.6702 29.7497C30.5902 30.9297 31.7602 31.9397 32.6102 33.1597C33.3102 34.1597 34.2301 34.9997 35.0101 35.9397C35.7901 36.8797 35.7902 37.8397 35.1302 38.2997Z" fill="#FCFCFC"/>
<path d="M23.0002 28.1104C22.9953 28.1334 22.9953 28.1573 23.0002 28.1804H22.9502L23.0002 28.1104Z" fill="#FCFCFC"/>
</g>
<defs>
<clipPath id="clip0_72_20">
<rect width="191" height="56" fill="white"/>
</clipPath>
</defs>
</svg>
