<svg width="32" height="32" viewBox="0 0 32 32" fill="none" xmlns="http://www.w3.org/2000/svg">
<g clip-path="url(#clip0_72_36)">
<path d="M31.9934 17.7391C31.9279 16.6368 31.9934 15.5231 31.9934 14.4151C31.9934 13.6156 31.7848 13.3586 30.9742 13.1815C30.1637 13.0045 29.4067 12.7303 29.1862 11.7366C29.0193 11.1769 28.7809 10.64 28.471 10.1431C28.0299 9.46921 28.1014 8.59539 28.6557 7.99572C28.7153 7.90434 28.763 7.80153 28.8107 7.70444C29.1504 7.24755 29.0729 6.6136 28.6259 6.24808C28.0359 5.65411 27.4518 5.06015 26.8677 4.46618C25.5863 3.1526 25.4313 3.11262 23.8876 4.03784C23.5896 4.24344 23.1962 4.272 22.8744 4.10066C22.1115 3.70659 21.3248 3.35249 20.5261 3.03837C19.8884 2.82706 19.4294 2.29591 19.3341 1.65626C18.9526 0.119936 18.75 0 17.1646 0C16.1633 0 15.156 0 14.1547 0C13.2845 0 13.0163 0.23416 12.7779 1.07942C12.5395 1.92468 12.3428 2.74139 11.3475 3.03266C10.4773 3.35249 9.63096 3.73514 8.81442 4.17491C8.5641 4.28342 8.26609 4.25486 8.03961 4.10637C7.56279 3.83794 7.17539 3.42674 6.52573 3.42674C6.186 3.47814 5.87607 3.64947 5.66151 3.90648C4.92841 4.56898 4.20127 5.2886 3.49202 6.0025C2.78276 6.7164 2.6874 7.07621 3.34301 8.03569C3.76618 8.6468 4.02247 9.24076 3.51586 9.94896C3.33705 10.2631 3.21189 10.6 3.14037 10.9541C2.78872 12.1535 2.24039 13.113 0.792074 13.2672C0.279501 13.3243 -0.0125456 13.7812 -0.000625334 14.3752C-0.000625334 15.3061 -0.000625334 16.2313 -0.000625334 17.1622C-0.000625334 18.75 -0.000625289 18.7671 1.57285 19.264C2.13311 19.3896 2.58608 19.7894 2.76488 20.3148C3.00925 21.0573 3.36089 21.7598 3.67678 22.4908C3.83771 22.8735 3.81387 23.3018 3.61718 23.6673C3.43838 23.9871 3.30129 24.2727 3.11057 24.5583C2.76488 24.9866 2.8364 25.5977 3.27149 25.9404C3.97479 26.6372 4.69001 27.3168 5.37542 28.025C6.31117 28.9902 6.61513 29.0644 7.75948 28.3562C8.20649 28.0364 8.80846 28.0021 9.28528 28.2763C9.77997 28.5504 10.2985 28.7789 10.8349 28.9616C11.8958 29.1672 12.7004 30.0068 12.8137 31.0405C12.8673 31.6173 13.3978 32.0457 14.0057 31.9943C15.1977 31.9943 16.3898 31.9943 17.5818 31.9943C18.6069 31.9943 18.8036 31.8058 19.0957 30.8121C19.2804 30.2067 19.4116 29.5499 20.1625 29.2986C20.8956 29.0701 21.6049 28.7846 22.2843 28.4362C22.9876 28.0021 23.9055 28.0535 24.5552 28.5561C25.2227 28.9959 25.6697 28.9102 26.2419 28.3448C26.975 27.6138 27.6962 26.8827 28.4352 26.1574C29.1743 25.4321 29.1743 25.2379 28.6736 24.444C28.0776 23.5702 27.9167 22.7307 28.6081 21.8454C28.763 21.5713 28.8822 21.2857 28.9657 20.983C29.3352 20.035 29.7643 19.2126 30.9802 19.0869C31.6894 19.0241 32.0411 18.5272 31.9934 17.7391ZM15.8653 27.214C9.63692 27.0598 4.70193 22.1139 4.83305 16.1399C4.64829 10.2117 9.51772 5.26004 15.7043 5.08299C15.7997 5.08299 15.901 5.07728 15.9964 5.07728C22.2188 5.07728 27.124 9.86329 27.1359 16.3455C27.1419 22.1767 22.183 27.3282 15.8653 27.214Z" fill="#E83926"/>
<path d="M20.9017 21.8795C20.401 22.2107 19.9719 22.068 19.5249 21.691C18.2017 20.5773 16.8607 19.4979 15.5375 18.3899C14.4587 18.3271 13.6064 17.4647 13.6064 16.4138C13.6064 16.3053 13.6124 16.2025 13.6362 16.0997C13.6362 16.0883 13.6362 16.0712 13.6422 16.0598C13.7078 15.6828 13.8925 15.3459 14.1548 15.0774C14.5005 13.998 14.3157 12.8044 14.5243 11.7021C14.6495 11.0167 14.6197 10.3028 14.6852 9.60607C14.7508 8.9093 15.1799 8.51522 15.6508 8.59518C16.2468 8.69798 16.4494 9.09206 16.4852 9.66318C16.6044 11.3823 16.7594 13.0899 16.8726 14.809C17.3971 15.1631 17.7428 15.7513 17.7428 16.4138C17.7428 16.608 17.713 16.7965 17.6534 16.9735C18.2017 17.6475 18.8991 18.2243 19.4057 18.9211C19.8229 19.4865 20.3712 19.9719 20.8361 20.5088C21.3069 21.0457 21.295 21.6168 20.9017 21.8795Z" fill="#FCFCFC"/>
<path d="M13.6422 16.0596C13.6362 16.071 13.6362 16.0881 13.6362 16.0995L13.6064 16.1053C13.6184 16.0881 13.6303 16.0767 13.6422 16.0596Z" fill="#FCFCFC"/>
</g>
<defs>
<clipPath id="clip0_72_36">
<rect width="32" height="32" fill="white"/>
</clipPath>
</defs>
</svg>
