<svg width="191" height="56" viewBox="0 0 191 56" fill="none" xmlns="http://www.w3.org/2000/svg">
<g clip-path="url(#clip0_72_3)">
<path d="M53.3405 24.7597C53.377 24.352 53.2598 23.9454 53.0119 23.6197C52.7639 23.2941 52.4032 23.0729 52.0005 22.9997C49.6605 22.7697 48.8305 21.1397 48.2405 19.1597C48.1499 18.8137 48.0225 18.4785 47.8605 18.1597C47.3667 17.4941 47.1266 16.6742 47.1834 15.8475C47.2403 15.0207 47.5902 14.2414 48.1705 13.6497C48.3494 13.4568 48.4885 13.2305 48.5798 12.9838C48.6711 12.7371 48.7129 12.4747 48.7027 12.2119C48.6924 11.949 48.6305 11.6907 48.5203 11.4518C48.4101 11.2129 48.2538 10.9981 48.0605 10.8197L48.0005 10.7697L44.0005 6.60968C43.6822 6.18533 43.2084 5.90479 42.6833 5.82978C42.1582 5.75477 41.6248 5.89142 41.2005 6.20968C39.5505 7.53968 38.0405 7.20968 36.4905 6.11968C36.3059 5.97556 36.1001 5.86087 35.8805 5.77968C33.6705 5.10968 32.0005 3.99968 31.7105 1.30968C31.6557 0.909985 31.4453 0.548089 31.1251 0.30275C30.8048 0.0574105 30.4006 -0.0515147 30.0005 -0.000320738H23.1205C22.7266 -0.0236076 22.3371 0.0916232 22.0193 0.325402C21.7015 0.559181 21.4755 0.896775 21.3805 1.27968C21.1758 1.83882 21.0186 2.41418 20.9105 2.99968C20.8401 3.42335 20.6639 3.82239 20.3982 4.15979C20.1325 4.49719 19.7858 4.76201 19.3905 4.92968C18.2813 5.36095 17.2079 5.87923 16.1805 6.47968C15.6174 6.90614 14.9252 7.12684 14.2193 7.105C13.5133 7.08317 12.8361 6.82012 12.3005 6.35968C11.0505 5.44968 10.2305 5.65968 9.15045 6.79968C7.86045 8.13968 6.62046 9.53968 5.34046 10.9097C4.99971 11.2431 4.78929 11.6873 4.74712 12.1622C4.70495 12.6371 4.83381 13.1114 5.11046 13.4997C5.33919 13.9094 5.58955 14.3066 5.86046 14.6897C6.09678 15.0023 6.23603 15.3775 6.26092 15.7687C6.28581 16.1598 6.19524 16.5496 6.00045 16.8897C5.44918 18.0104 4.98124 19.1702 4.60045 20.3597C4.4488 20.9973 4.11288 21.5763 3.63455 22.0244C3.15623 22.4725 2.55663 22.7699 1.91045 22.8797C1.25045 22.9997 0.430455 23.1097 0.160455 23.9997C0.059363 24.2429 0.02152 24.5078 0.050455 24.7697C0.0604567 24.8961 0.0604567 25.0232 0.050455 25.1497V32.1497C0.109193 32.4422 0.260498 32.7081 0.482003 32.908C0.703508 33.1079 0.983454 33.2312 1.28045 33.2597C2.23658 33.3588 3.12909 33.7852 3.80697 34.4667C4.48485 35.1483 4.90646 36.043 5.00045 36.9997C5.06626 37.3076 5.18466 37.6019 5.35045 37.8697C5.89325 38.5917 6.16639 39.4808 6.12256 40.383C6.07873 41.2852 5.72068 42.1437 5.11046 42.8097C4.82708 43.148 4.68373 43.5819 4.70976 44.0225C4.73578 44.4631 4.92921 44.877 5.25045 45.1797C6.64045 46.7097 8.00045 48.2397 9.49045 49.6997C9.63413 49.8861 9.81356 50.0421 10.0182 50.1583C10.2229 50.2746 10.4487 50.3489 10.6824 50.3768C10.9162 50.4048 11.1531 50.3858 11.3794 50.321C11.6058 50.2563 11.8169 50.147 12.0005 49.9997C12.6251 49.3689 13.4716 49.0074 14.3592 48.9925C15.2467 48.9775 16.105 49.3103 16.7505 49.9197C17.0052 50.0827 17.2859 50.201 17.5805 50.2697C19.7005 50.8997 21.2605 52.0397 21.5805 54.5297C21.6308 54.9643 21.8497 55.3617 22.19 55.6366C22.5304 55.9115 22.965 56.0419 23.4005 55.9997H23.5105C25.6571 55.9597 27.8071 55.9597 29.9605 55.9997C30.4098 56.0516 30.8617 55.9275 31.2215 55.6534C31.5813 55.3793 31.8211 54.9766 31.8905 54.5297C32.0105 54.0397 32.1405 53.5297 32.2505 53.0497C32.3123 52.6246 32.4895 52.2246 32.7628 51.8931C33.036 51.5617 33.3949 51.3114 33.8005 51.1697C34.863 50.8357 35.8884 50.3934 36.8605 49.8497C37.4803 49.3389 38.2622 49.0662 39.0652 49.0809C39.8683 49.0956 40.6397 49.3966 41.2405 49.9297C41.4432 50.0975 41.677 50.2237 41.9286 50.301C42.1802 50.3782 42.4445 50.4051 42.7065 50.38C42.9685 50.3549 43.2229 50.2784 43.4553 50.1548C43.6876 50.0312 43.8933 49.8629 44.0605 49.6597L44.1305 49.5597C45.1305 48.4497 46.2005 47.3597 47.2705 46.2697C48.9905 44.5097 49.0705 44.1997 47.7505 42.1497C47.3619 41.7073 47.1298 41.1494 47.09 40.5619C47.0503 39.9745 47.205 39.3903 47.5305 38.8997C47.9618 38.2011 48.2791 37.4382 48.4705 36.6397C48.6122 35.7977 49.0197 35.0232 49.6333 34.4294C50.2468 33.8356 51.0343 33.4538 51.8805 33.3397C52.3153 33.2918 52.7156 33.0801 52.9998 32.7476C53.284 32.415 53.4309 31.9867 53.4105 31.5497C53.4205 29.2797 53.3705 26.9997 53.3405 24.7597ZM45.5205 29.2497C44.7405 40.4097 35.7505 47.8597 25.9105 47.4297C15.1405 46.9497 7.46045 38.0697 7.91045 27.4297C8.37045 16.4297 17.3505 8.24968 27.8405 8.86968C32.8674 9.20591 37.5549 11.5249 40.8723 15.3167C44.1896 19.1085 45.8652 24.0627 45.5305 29.0897C45.5305 29.1497 45.5205 29.1997 45.5205 29.2497Z" fill="#E73926"/>
<path d="M119.78 18.0899C114.94 18.0899 111.68 21.5199 111.67 26.6099C111.66 31.6999 114.79 35.1599 119.57 35.2099C124.35 35.2599 127.8 31.7999 127.91 26.8499C128 21.4699 124.31 18.0799 119.78 18.0899ZM118.24 31.8699C116.07 31.1499 115.24 29.3399 115.03 27.1699C114.8 23.9399 116.7 21.0299 120.1 21.1699C122.7 21.3099 124.46 23.4599 124.47 26.6399C124.47 30.5699 121.62 32.9999 118.24 31.8699Z" fill="#0B253A"/>
<path d="M74.37 25.9999C74.18 23.7499 73.53 21.6799 71.62 20.2899C70.7609 19.5224 69.7046 19.0098 68.57 18.8099C66.14 18.3099 63.67 18.6999 61.23 18.5499C60.38 18.5499 60.06 18.6799 60.08 19.6699C60.14 23.7999 60.08 27.9199 60.08 32.0399C60.08 32.9399 59.7 34.1699 60.25 34.6499C60.8 35.1299 61.92 34.8299 62.79 34.8099C65.21 34.7399 67.6801 35.1299 69.9801 33.9899C71.4505 33.2785 72.6632 32.127 73.4498 30.6953C74.2364 29.2636 74.558 27.6226 74.37 25.9999ZM70.81 27.9999C70.6983 29.1213 70.1548 30.1553 69.2945 30.8831C68.4341 31.6109 67.3244 31.9756 66.2 31.8999C63.57 31.8999 63.57 31.8999 63.56 29.2799V26.6699V22.1599C63.56 21.6099 63.66 21.3799 64.24 21.4199C65.2414 21.3917 66.2435 21.4284 67.24 21.5299C70.77 22.2799 71.32 24.9999 70.81 27.9999Z" fill="#0C2539"/>
<path d="M159.85 31.8904H165.08C165.74 31.8904 165.99 31.9804 165.98 32.7704C165.98 34.8404 165.98 34.8304 163.98 34.8304H156.26C155.8 34.8304 155 35.1504 154.94 34.6104C154.84 33.8004 154.48 32.8304 155.34 32.0804C157.259 30.4296 159.092 28.6806 160.83 26.8404C161.373 26.2982 161.831 25.6781 162.19 25.0004C162.95 23.5104 162.64 22.3204 161.36 21.7304C160.786 21.4511 160.124 21.4111 159.52 21.6192C158.917 21.8273 158.42 22.2665 158.14 22.8404C158.085 22.9569 158.038 23.0772 158 23.2004C157.83 24.0404 157.48 24.1104 156.87 24.0604H156.52C154.39 24.0604 154.23 23.8004 155.04 21.6704C155.533 20.5317 156.389 19.5879 157.474 18.9857C158.559 18.3835 159.813 18.1566 161.04 18.3404C162.237 18.3638 163.385 18.8157 164.277 19.6139C165.169 20.4121 165.745 21.5037 165.9 22.6904C165.996 23.6666 165.865 24.6517 165.518 25.5691C165.171 26.4866 164.618 27.3117 163.9 27.9804C162.61 29.2904 161.28 30.4904 159.85 31.8904Z" fill="#0C2539"/>
<path d="M179.63 29.5702C179.53 28.9802 178.84 29.2702 178.45 29.3002C177.66 29.3602 177.39 29.1302 177.45 28.3002C177.53 26.9202 177.45 25.5302 177.45 24.1502V21.8902C177.45 20.8902 177.79 19.5802 177.31 19.0402C176.83 18.5002 175.43 18.9202 174.45 18.8302C174.21 18.7871 173.962 18.8246 173.745 18.9366C173.528 19.0487 173.354 19.2292 173.25 19.4502C171.58 22.3102 169.92 25.1802 168.14 27.9602C167.501 28.9825 167.191 30.176 167.25 31.3802C167.25 32.1002 167.51 32.2102 168.11 32.2002H172.94C173.94 32.1502 174.46 32.3902 174.24 33.5102C174.02 34.6302 174.55 35.1102 175.64 34.9002H175.87C177.45 34.9002 177.52 34.9002 177.44 33.2802C177.39 32.3402 177.7 32.1102 178.52 32.2102C178.88 32.2102 179.52 32.4002 179.58 32.0902C179.762 31.2615 179.779 30.4054 179.63 29.5702ZM173.63 29.2802H170.28L174.21 22.8402V28.6902C174.21 29.1602 174.08 29.2902 173.65 29.2802H173.63Z" fill="#0C263A"/>
<path d="M141.71 28.4899C141.71 26.1999 141.08 24.1699 138.9 23.1399C137.954 22.6307 136.87 22.4394 135.808 22.5943C134.745 22.7492 133.761 23.242 133 23.9999C132.983 23.7849 132.953 23.5712 132.91 23.3599C132.91 23.1599 132.91 22.8899 132.61 22.8899C132.114 22.9299 131.616 22.9299 131.12 22.8899C130.19 22.7599 129.9 23.0399 129.92 24.0699C129.98 28.2599 129.92 32.4499 129.92 36.6399C129.92 39.6399 129.92 39.6399 132.84 39.5399C132.91 39.5399 132.98 39.4799 132.93 39.5399V33.8399C133.072 33.8599 133.21 33.9003 133.34 33.9599C136.58 36.3699 140.51 34.8499 141.51 30.8399C141.676 30.0683 141.744 29.2786 141.71 28.4899ZM135.37 32.3699C135.257 32.3799 135.143 32.3799 135.03 32.3699C133.5 31.9699 132.71 29.9299 133.19 27.5899C133.296 26.8733 133.682 26.2279 134.263 25.795C134.844 25.3621 135.573 25.1769 136.29 25.2799H136.39C137.72 25.5199 138.49 26.7699 138.52 28.7399C138.52 31.1099 137.33 32.5299 135.37 32.3499V32.3699Z" fill="#0B253A"/>
<path d="M86.5898 34.3505C86.1798 31.9905 86.4798 29.6105 86.3898 27.2405C86.2998 24.8705 85.3898 23.5305 83.6298 22.9405C82.5323 22.5737 81.3625 22.4777 80.2198 22.6605C78.6298 22.8905 77.1598 23.4005 76.4498 25.1105C75.9598 26.2905 76.0498 26.4505 77.2798 26.4405C78.1798 26.4405 79.0599 26.6405 79.7299 25.5805C80.2199 24.7905 81.9499 24.8505 82.7299 25.4305C82.9503 25.6301 83.1082 25.8894 83.1845 26.1769C83.2608 26.4643 83.2523 26.7678 83.1599 27.0505C83.0699 27.6505 82.5399 27.3305 82.1599 27.3505C80.6276 27.3333 79.1109 27.6578 77.7198 28.3005C76.9946 28.6563 76.4061 29.2404 76.0448 29.963C75.6835 30.6856 75.5694 31.5067 75.7198 32.3005C75.8753 33.0578 76.2858 33.7389 76.8826 34.2302C77.4795 34.7215 78.2268 34.9934 78.9998 35.0005C79.787 35.1456 80.597 35.1075 81.367 34.889C82.137 34.6704 82.8463 34.2775 83.4399 33.7405C83.2199 34.8005 83.7398 34.8905 84.4398 34.8305C85.0154 34.7805 85.5943 34.7805 86.1698 34.8305C86.5298 34.9005 86.6598 34.7805 86.5898 34.3505ZM82.9799 31.3505C82.6486 31.9168 82.1265 32.3466 81.5071 32.5628C80.8877 32.7791 80.2116 32.7676 79.5998 32.5305C79.4368 32.448 79.2919 32.3339 79.1733 32.1949C79.0547 32.056 78.9649 31.8948 78.9091 31.7209C78.8533 31.5469 78.8326 31.3636 78.8481 31.1816C78.8637 30.9995 78.9153 30.8224 78.9998 30.6605C79.1139 30.4466 79.2831 30.267 79.4898 30.1405C80.3043 29.6434 81.2626 29.4355 82.2098 29.5505C82.4698 29.6705 82.9998 29.1505 83.1298 29.5505C83.3228 30.1411 83.2762 30.7839 82.9998 31.3405L82.9799 31.3505Z" fill="#0C2539"/>
<path d="M99.0898 22.8902C100.23 22.8902 101.54 22.5102 102.31 23.0102C103.08 23.5102 103.07 24.8602 103.38 25.8602C103.95 27.6302 104.49 29.4002 105.1 31.3702C105.97 28.6502 106.8 26.1602 107.54 23.6302C107.73 23.0002 107.97 22.8102 108.54 22.8402H111C109.21 27.7702 107.49 32.6502 105.67 37.4802C105.21 38.4231 104.428 39.1698 103.464 39.5846C102.501 39.9993 101.421 40.0545 100.42 39.7402C99.9098 39.5102 100.23 38.9802 100.18 38.5902C100.02 37.5902 100.18 36.9702 101.5 37.0702C102.99 37.1802 103.7 35.8902 103.17 34.4102C101.86 30.6002 100.49 26.7902 99.0898 22.8902Z" fill="#0B2438"/>
<path d="M144.69 31.0004C145.045 30.9176 145.418 30.9755 145.732 31.1619C146.045 31.3483 146.274 31.6488 146.37 32.0004C146.76 32.9204 149.21 32.9204 149.93 32.1704C150.65 31.4204 150.27 30.5804 149.26 30.3204C148.25 30.0604 147.02 29.8604 145.91 29.5804C145.184 29.4852 144.518 29.1275 144.037 28.5749C143.556 28.0223 143.294 27.3128 143.3 26.5804C143.213 25.7967 143.404 25.0072 143.838 24.3494C144.273 23.6916 144.925 23.2072 145.68 22.9804C147.215 22.4643 148.875 22.4468 150.42 22.9304C150.982 23.0809 151.498 23.3697 151.92 23.7704C152.275 24.0473 152.553 24.4105 152.728 24.8253C152.903 25.2401 152.969 25.6928 152.92 26.1404C152.85 26.4904 150.23 26.0904 149.92 25.7004C149.553 25.3358 149.08 25.0954 148.569 25.0129C148.058 24.9304 147.534 25.01 147.07 25.2404C146.865 25.3117 146.689 25.4478 146.568 25.6283C146.447 25.8087 146.388 26.0235 146.4 26.2404C146.418 26.4387 146.5 26.6259 146.634 26.7738C146.767 26.9216 146.945 27.0222 147.14 27.0604C147.94 27.2804 148.77 27.4304 149.59 27.6104C149.85 27.6604 150.11 27.7104 150.37 27.7804C152.63 28.4104 153.37 29.2904 153.37 31.3004C153.406 32.1879 153.104 33.056 152.525 33.7297C151.946 34.4033 151.133 34.8324 150.25 34.9304C148.707 35.2846 147.097 35.2155 145.59 34.7304C144.966 34.5535 144.399 34.2169 143.945 33.754C143.491 33.291 143.165 32.7176 143 32.0904C142.75 31.2104 142.92 30.8304 143.86 30.9704C144.16 31.0004 144.43 31.0004 144.69 31.0004Z" fill="#0B253A"/>
<path d="M187.37 21.6802H180.92C180.22 21.6802 179.92 21.5902 179.92 20.7402C179.92 18.7402 179.92 18.7402 181.85 18.7402H190.15C190.84 18.7402 191.15 18.8402 191.15 19.6802C191.144 20.5786 190.967 21.4676 190.63 22.3002C188.93 26.1469 187.263 30.0169 185.63 33.9102C185.556 34.2042 185.374 34.4593 185.12 34.6244C184.866 34.7895 184.558 34.8523 184.26 34.8002C183.4 34.7302 182.52 34.8002 181.55 34.8002L187.37 21.6802Z" fill="#0B2438"/>
<path d="M97.6796 26.3101V33.9201C97.6796 34.5901 97.6097 34.9201 96.8297 34.8601C94.6397 34.8601 94.6396 34.8601 94.6396 32.6301V18.8301C94.6396 18.0601 94.8196 17.8301 95.5696 17.8301C97.6796 17.8901 97.6896 17.8301 97.6796 20.0901V26.3101Z" fill="#0B2236"/>
<path d="M91.9999 28.8101V34.1501C91.9999 34.7301 91.8499 34.8501 91.2999 34.8501C88.9199 34.8501 88.9199 34.8501 88.9199 32.4801V23.6901C88.9199 23.0401 89.0699 22.8301 89.7299 22.8301C91.9999 22.8301 91.9999 22.8301 91.9999 25.1301V28.8101Z" fill="#0A2337"/>
<path d="M90.4397 21.2102C89.9718 21.1973 89.5271 21.0036 89.199 20.6698C88.8708 20.3361 88.6847 19.8882 88.6797 19.4202C88.7 18.9513 88.8988 18.5079 89.2352 18.1808C89.5717 17.8536 90.0204 17.6674 90.4897 17.6602C90.9397 17.6732 91.3664 17.8633 91.6772 18.1891C91.988 18.5148 92.1578 18.95 92.1497 19.4002C92.1591 19.6287 92.1233 19.8569 92.0444 20.0716C91.9655 20.2863 91.8451 20.4833 91.69 20.6514C91.5349 20.8195 91.3481 20.9554 91.1405 21.0513C90.9328 21.1472 90.7083 21.2011 90.4797 21.2102H90.4397Z" fill="#0C2133"/>
<path d="M0.16008 24C0.24669 26.7143 0.193286 29.4312 8.0198e-05 32.14C-0.241765 29.4289 -0.188117 26.6995 0.16008 24Z" fill="#902524"/>
<path d="M34.4895 38.3297C34.1351 38.5798 33.6984 38.6849 33.269 38.6236C32.8395 38.5622 32.4498 38.339 32.1795 37.9997C29.9595 35.9997 27.7095 34.1597 25.4895 32.2197C24.6105 32.1637 23.786 31.7745 23.184 31.1316C22.5819 30.4887 22.2477 29.6404 22.2495 28.7597C22.2458 28.575 22.2626 28.3906 22.2995 28.2097C22.2947 28.1866 22.2947 28.1627 22.2995 28.1397C22.4097 27.4938 22.709 26.8952 23.1595 26.4197C23.7395 24.5297 23.4295 22.4197 23.7795 20.5097C23.9895 19.3097 23.9395 18.0597 24.0495 16.8397C24.1595 15.6197 24.8795 14.9297 25.6695 15.0697C26.6695 15.2497 27.0095 15.9397 27.0695 16.9397C27.2695 19.9397 27.5295 22.9397 27.7195 25.9397C28.1702 26.2568 28.538 26.6777 28.7921 27.1667C29.0462 27.6557 29.179 28.1986 29.1795 28.7497C29.183 29.0888 29.1324 29.4264 29.0295 29.7497C29.9495 30.9297 31.1195 31.9397 31.9695 33.1597C32.6695 34.1597 33.5895 34.9997 34.3695 35.9397C35.1495 36.8797 35.1495 37.8697 34.4895 38.3297Z" fill="#172838"/>
<path d="M22.3098 28.1396C22.3049 28.1627 22.3049 28.1866 22.3098 28.2096H22.2598L22.3098 28.1396Z" fill="#172838"/>
</g>
<defs>
<clipPath id="clip0_72_3">
<rect width="191" height="56" fill="white"/>
</clipPath>
</defs>
</svg>
